<svg width="9" height="6" viewBox="0 0 9 6" fill="none" xmlns="http://www.w3.org/2000/svg">
<path d="M0.604359 1.45306L4.25911 5.01569C4.3233 5.07826 4.4094 5.11328 4.49904 5.11328C4.58869 5.11328 4.67479 5.07826 4.73898 5.01569L8.3951 1.45306C8.42504 1.42392 8.44883 1.38907 8.46508 1.35057C8.48133 1.31208 8.4897 1.27072 8.4897 1.22894C8.4897 1.18716 8.48133 1.1458 8.46508 1.10731C8.44883 1.06881 8.42504 1.03396 8.3951 1.00482C8.33371 0.94485 8.2513 0.911279 8.16548 0.911279C8.07966 0.911279 7.99725 0.94485 7.93585 1.00482L4.49904 4.355L1.06292 1.00482C1.00156 0.945055 0.919292 0.911614 0.83364 0.911614C0.747987 0.911614 0.66572 0.945055 0.604359 1.00482C0.574423 1.03396 0.550629 1.06881 0.534383 1.10731C0.518136 1.1458 0.509766 1.18716 0.509766 1.22894C0.509766 1.27072 0.518136 1.31208 0.534383 1.35057C0.550629 1.38907 0.574423 1.42392 0.604359 1.45306Z" fill="#2D2D2D"/>
</svg>
